<?xml version="1.0" encoding="utf-8"?>
<!-- Generator: Adobe Illustrator 24.0.1, SVG Export Plug-In . SVG Version: 6.00 Build 0)  -->
<svg version="1.1" id="Layer_1" xmlns="http://www.w3.org/2000/svg" xmlns:xlink="http://www.w3.org/1999/xlink" x="0px" y="0px"
	 viewBox="0 0 1785.74 1785.74" style="enable-background:new 0 0 1785.74 1785.74;" xml:space="preserve">
<style type="text/css">
	.st0{fill:#1A1A1A;}
	.st1{fill:#BC243C;}
</style>
<g>
	<g>
		<g>
			<rect x="460.77" y="1101.82" class="st0" width="867" height="208.57"/>
			<rect x="460.77" y="892.66" class="st1" width="867" height="208.57"/>
		</g>
		<path class="st0" d="M989.04,494.87H799.5c-114.27,0-207.23,92.96-207.23,207.23v190.77h112v-112v-27V702.1
			c0-52.51,42.72-95.23,95.23-95.23h189.54c52.51,0,95.23,42.72,95.23,95.23v51.77v27v112h112V702.1
			C1196.27,587.83,1103.31,494.87,989.04,494.87z"/>
	</g>
	<g>
		<path class="st0" d="M681.7,1005.03h-40.58v25.58h47.93v19.85h-73.74V943.42h73.89v19.92h-48.08v22.57h40.58V1005.03z"/>
		<path class="st0" d="M739.48,979l17.5-35.58h29.48l-29.92,53.08l30.73,53.96h-29.77l-18.01-36.24l-18.01,36.24h-29.7l30.66-53.96
			l-29.85-53.08h29.41L739.48,979z"/>
		<path class="st0" d="M884.46,999.14c0,10.44-1.94,19.68-5.81,27.72c-3.87,8.04-9.37,14.23-16.5,18.56
			c-7.13,4.34-15.25,6.51-24.37,6.51s-17.2-2.1-24.26-6.29s-12.56-10.18-16.5-17.97c-3.95-7.79-6.02-16.74-6.21-26.83v-6.03
			c0-10.49,1.92-19.74,5.77-27.75c3.85-8.01,9.36-14.2,16.54-18.56c7.18-4.36,15.35-6.54,24.52-6.54c9.07,0,17.15,2.16,24.26,6.47
			c7.11,4.31,12.63,10.45,16.58,18.42c3.94,7.96,5.94,17.09,5.99,27.38V999.14z M858.21,994.66c0-10.63-1.78-18.71-5.33-24.22
			c-3.55-5.51-8.64-8.27-15.25-8.27c-12.94,0-19.78,9.71-20.51,29.11l-0.07,7.87c0,10.49,1.74,18.55,5.22,24.19
			c3.48,5.64,8.65,8.45,15.51,8.45c6.52,0,11.54-2.77,15.07-8.31c3.53-5.54,5.32-13.5,5.37-23.89V994.66z"/>
		<path class="st0" d="M897.76,1050.46V943.42h34.48c9.46,0,17.96,2.15,25.51,6.43c7.55,4.29,13.44,10.34,17.68,18.16
			c4.24,7.82,6.38,16.58,6.43,26.28v4.92c0,9.8-2.07,18.59-6.21,26.36c-4.14,7.77-9.97,13.85-17.5,18.23
			c-7.52,4.39-15.92,6.61-25.18,6.65H897.76z M923.57,963.34v67.27h8.97c7.4,0,13.09-2.63,17.06-7.9c3.97-5.27,5.96-13.1,5.96-23.49
			v-4.63c0-10.34-1.98-18.13-5.96-23.38c-3.97-5.24-9.75-7.87-17.35-7.87H923.57z"/>
		<path class="st0" d="M1079.06,943.42v70.06c0,7.94-1.69,14.81-5.07,20.62c-3.38,5.81-8.23,10.23-14.56,13.27
			c-6.32,3.04-13.8,4.56-22.42,4.56c-13.04,0-23.31-3.38-30.8-10.15c-7.5-6.76-11.32-16.03-11.47-27.79v-70.58h25.95v71.09
			c0.29,11.71,5.73,17.57,16.32,17.57c5.34,0,9.38-1.47,12.13-4.41c2.74-2.94,4.12-7.72,4.12-14.34v-69.92H1079.06z"/>
		<path class="st0" d="M1150.37,1022.01c0-3.77-1.34-6.71-4.01-8.82c-2.67-2.11-7.36-4.29-14.08-6.54
			c-6.71-2.25-12.2-4.44-16.47-6.54c-13.87-6.81-20.81-16.17-20.81-28.08c0-5.93,1.73-11.16,5.18-15.7
			c3.46-4.53,8.34-8.06,14.67-10.59c6.32-2.52,13.43-3.79,21.32-3.79c7.69,0,14.59,1.37,20.7,4.12c6.1,2.75,10.84,6.65,14.23,11.73
			c3.38,5.07,5.07,10.87,5.07,17.39h-25.73c0-4.36-1.34-7.74-4.01-10.15c-2.67-2.4-6.29-3.6-10.84-3.6c-4.61,0-8.25,1.02-10.92,3.05
			c-2.67,2.03-4.01,4.62-4.01,7.76c0,2.75,1.47,5.23,4.41,7.46c2.94,2.23,8.11,4.53,15.51,6.91c7.4,2.38,13.48,4.94,18.23,7.68
			c11.57,6.67,17.35,15.86,17.35,27.57c0,9.36-3.53,16.71-10.59,22.06c-7.06,5.34-16.74,8.01-29.04,8.01
			c-8.68,0-16.53-1.56-23.56-4.67c-7.03-3.11-12.33-7.38-15.88-12.79c-3.55-5.42-5.33-11.65-5.33-18.71h25.88
			c0,5.73,1.48,9.96,4.45,12.68c2.96,2.72,7.78,4.08,14.45,4.08c4.26,0,7.63-0.92,10.11-2.76
			C1149.13,1027.93,1150.37,1025.34,1150.37,1022.01z"/>
	</g>
	<g>
		<g>
		</g>
		<g>
			<path class="st1" d="M602.66,1231.07c0-3.77-1.34-6.71-4.01-8.82c-2.67-2.11-7.36-4.29-14.08-6.54
				c-6.72-2.25-12.2-4.44-16.47-6.54c-13.87-6.81-20.81-16.17-20.81-28.08c0-5.93,1.73-11.16,5.18-15.7
				c3.46-4.53,8.34-8.06,14.67-10.59c6.32-2.52,13.43-3.79,21.32-3.79c7.69,0,14.59,1.37,20.69,4.12
				c6.1,2.75,10.84,6.65,14.23,11.73c3.38,5.07,5.07,10.87,5.07,17.39h-25.73c0-4.36-1.34-7.74-4.01-10.15
				c-2.67-2.4-6.29-3.6-10.84-3.6c-4.61,0-8.25,1.02-10.92,3.05c-2.67,2.03-4.01,4.62-4.01,7.76c0,2.75,1.47,5.23,4.41,7.46
				c2.94,2.23,8.11,4.53,15.51,6.91c7.4,2.38,13.48,4.94,18.23,7.68c11.57,6.67,17.35,15.86,17.35,27.57
				c0,9.36-3.53,16.71-10.59,22.06c-7.06,5.34-16.74,8.01-29.04,8.01c-8.68,0-16.53-1.56-23.56-4.67
				c-7.03-3.11-12.33-7.38-15.88-12.79c-3.55-5.42-5.33-11.65-5.33-18.71h25.88c0,5.73,1.48,9.96,4.45,12.68
				c2.96,2.72,7.78,4.08,14.45,4.08c4.26,0,7.63-0.92,10.11-2.76C601.43,1236.99,602.66,1234.41,602.66,1231.07z"/>
			<path class="st1" d="M708.09,1214.09h-40.58v25.58h47.93v19.85H641.7v-107.04h73.89v19.92h-48.08v22.57h40.58V1214.09z"/>
			<path class="st1" d="M812.56,1223.28c-0.34,7.45-2.35,14.03-6.03,19.74c-3.68,5.71-8.83,10.13-15.48,13.27
				c-6.64,3.14-14.23,4.71-22.75,4.71c-14.07,0-25.14-4.58-33.23-13.75c-8.09-9.16-12.13-22.1-12.13-38.82v-5.29
				c0-10.49,1.83-19.67,5.48-27.53c3.65-7.87,8.91-13.94,15.77-18.23c6.86-4.29,14.8-6.43,23.82-6.43
				c12.99,0,23.43,3.42,31.32,10.25c7.89,6.84,12.38,16.26,13.45,28.27h-25.73c-0.2-6.52-1.84-11.2-4.93-14.04
				c-3.09-2.84-7.79-4.26-14.12-4.26c-6.42,0-11.13,2.4-14.12,7.21c-2.99,4.8-4.56,12.47-4.71,23.01v7.57
				c0,11.42,1.43,19.58,4.3,24.48c2.87,4.9,7.8,7.35,14.81,7.35c5.93,0,10.46-1.4,13.6-4.19c3.14-2.79,4.8-7.23,5-13.31H812.56z"/>
			<path class="st1" d="M908.72,1152.48v70.06c0,7.94-1.69,14.81-5.07,20.62c-3.38,5.81-8.23,10.23-14.56,13.27
				c-6.32,3.04-13.8,4.56-22.42,4.56c-13.04,0-23.3-3.38-30.8-10.15c-7.5-6.76-11.32-16.03-11.47-27.79v-70.58h25.95v71.09
				c0.29,11.71,5.73,17.57,16.32,17.57c5.34,0,9.39-1.47,12.13-4.41c2.74-2.94,4.12-7.72,4.12-14.34v-69.92H908.72z"/>
			<path class="st1" d="M964.59,1221.66h-13.97v37.86h-25.8v-107.04h42.13c12.69,0,22.62,2.82,29.77,8.45
				c7.16,5.63,10.73,13.59,10.73,23.87c0,7.44-1.51,13.61-4.52,18.51c-3.01,4.9-7.73,8.86-14.15,11.9l22.35,43.22v1.1h-27.64
				L964.59,1221.66z M950.62,1201.81h16.32c4.9,0,8.59-1.29,11.06-3.87c2.47-2.58,3.71-6.18,3.71-10.8c0-4.62-1.25-8.24-3.75-10.87
				c-2.5-2.63-6.18-3.94-11.03-3.94h-16.32V1201.81z"/>
			<path class="st1" d="M1050.53,1259.52h-25.73v-107.04h25.73V1259.52z"/>
			<path class="st1" d="M1150.37,1172.41h-32.13v87.12h-25.8v-87.12h-31.54v-19.92h89.47V1172.41z"/>
			<path class="st1" d="M1201.61,1198.95l19.7-46.46h27.86l-34.48,68.59v38.45h-26.17v-38.45l-34.41-68.59h27.72L1201.61,1198.95z"
				/>
		</g>
	</g>
</g>
</svg>
